<svg width="48" height="48" viewBox="0 0 48 48" fill="none" xmlns="http://www.w3.org/2000/svg">
<g clip-path="url(#clip0_117_6128)">
<path d="M24 48C37.2548 48 48 37.2548 48 24C48 10.7452 37.2548 0 24 0C10.7452 0 0 10.7452 0 24C0 37.2548 10.7452 48 24 48Z" fill="#E6F7FE"/>
<path fill-rule="evenodd" clip-rule="evenodd" d="M23.9999 29C26.3703 29 29.2407 29.2483 31.6111 29.7448C35.5095 30.2892 38.1909 32.8884 39.3516 36.8179C35.6835 41.208 30.1678 44 23.9999 44C17.8195 44 12.2938 41.1966 8.62512 36.792C9.73079 32.9982 12.3043 30.5554 16.3888 29.7448C18.7592 29.2483 21.6296 29 23.9999 29ZM23.9999 8C28.4182 8 31.9999 11.5817 31.9999 16V18C31.9999 22.4183 28.4182 26 23.9999 26C19.5817 26 15.9999 22.4183 15.9999 18V16C15.9999 11.5817 19.5817 8 23.9999 8Z" fill="#00AFF5"/>
</g>
<defs>
<clipPath id="clip0_117_6128">
<rect width="48" height="48" fill="white"/>
</clipPath>
</defs>
</svg>
